Benfica vs Chelsea, Europa League final aired on 15th of May 2013. English Commentary from ITV.

Quality : 720p with MPEG-AVC Format. 

Details : Full match and trophy presentation plus celebrations for the winning team

Credit : Aired by Arena Vision 3 and Rojadirecta, capped by IAMH67 via Android and uploaded in under 1 hour of the match airing.



Video

ID                             : 69 (0x45)
Menu ID                        : 1 (0x1)
Format                         : AVC [MPEG]
Format/Info                    : Advanced Video Codec
Format profile                 : High@L5.1
Format settings, CABAC         : Yes
Format settings, ReFrames      : 7 frames
Codec ID                       : 27
Duration                       : 48mn 24s
Bit rate                       : 1 904 Kbps
Width                          : 1 280 pixels
Height                         : 720 pixels
Display aspect ratio           : 16:9
Frame rate                     : 25.000 fps
Color space                    : YUV
Chroma subsampling             : 4:2:0
Bit depth                      : 8 bits
Scan type                      : Progressive
Bits/(Pixel*Frame)             : 0.083
Stream size                    : 656 MiB (90%)

Audio

ID                             : 68 (0x44)
Menu ID                        : 1 (0x1)
Format                         : MPEG Audio
Format version                 : Version 1
Format profile                 : Layer 3
Mode                           : Joint stereo
Mode extension                 : MS Stereo
Codec ID                       : 3
Duration                       : 48mn 24s
Bit rate mode                  : Constant
Bit rate                       : 96.0 Kbps
Channel(s)                     : 2 channels
Sampling rate                  : 44.1 KHz
Compression mode               : Lossy
Delay relative to video        : -72ms
Stream size                    : 33.2 MiB (5%)


Screens : 
 
http://i.imgur.com/Kq49oW8.jpg
 
http://i.imgur.com/Vn0UKpB.jpg
 
http://i.imgur.com/Ulxeqm4.jpg